<svg width="228" height="228" viewBox="0 0 228 228" fill="none" xmlns="http://www.w3.org/2000/svg">
<g opacity="0.6" clip-path="url(#clip0_2251_7150)">
<path d="M228 0.0371094H0V228.037H228V0.0371094Z" fill="white"/>
<path d="M66.2393 35.7275C28.8354 66.3883 14.3805 130.094 44.1472 170.628C74.8452 212.465 142.537 216.265 178.19 178.861C193.912 162.394 211.757 124.431 189.069 106.139C171.522 91.9824 143.208 104.575 123.016 101.557C97.459 97.7197 88.9276 73.4668 98.0923 51.7844C101.706 43.1785 111.318 38.0001 100.663 29.3197C91.6099 21.9432 73.4295 29.804 66.2393 35.7275Z" fill="#FEE7F0"/>
<path d="M91.6473 186.237C111.091 186.237 126.853 181.701 126.853 176.104C126.853 170.508 111.091 165.971 91.6473 165.971C72.2036 165.971 56.4414 170.508 56.4414 176.104C56.4414 181.701 72.2036 186.237 91.6473 186.237Z" fill="#E7DAD7"/>
<path d="M136.353 173.422C155.221 173.422 170.516 168.451 170.516 162.32C170.516 156.188 155.221 151.218 136.353 151.218C117.486 151.218 102.19 156.188 102.19 162.32C102.19 168.451 117.486 173.422 136.353 173.422Z" fill="#E7DAD7"/>
<path d="M136.354 170.032C122.011 170.032 106.811 166.642 106.811 160.42V148.536H108.673C108.673 152.224 120.036 156.285 136.354 156.285C152.671 156.285 164.034 152.187 164.034 148.536H165.897V160.42C165.897 166.642 150.66 170.032 136.354 170.032ZM108.673 152.075V160.383C108.673 164.071 120.036 168.132 136.354 168.132C152.671 168.132 164.034 164.034 164.034 160.383V152.075C159.563 156.061 147.679 158.147 136.354 158.147C125.028 158.147 113.144 156.024 108.673 152.075Z" fill="#784B42"/>
<path opacity="0.53" d="M136.354 156.992C152.156 156.992 164.966 153.456 164.966 149.094C164.966 144.732 152.156 141.196 136.354 141.196C120.552 141.196 107.742 144.732 107.742 149.094C107.742 153.456 120.552 156.992 136.354 156.992Z" fill="#FFFFFC"/>
<path opacity="0.38" d="M136.354 169.063C152.156 169.063 164.966 165.41 164.966 160.904C164.966 156.398 152.156 152.745 136.354 152.745C120.552 152.745 107.742 156.398 107.742 160.904C107.742 165.41 120.552 169.063 136.354 169.063Z" fill="#FFFFFC"/>
<path d="M161.687 75.0315C161.687 72.2374 150.324 70.5981 136.354 70.5981C122.346 70.5981 111.021 72.2374 111.021 75.0315C111.021 75.1432 111.021 75.404 111.021 75.404V146.3C111.021 146.3 111.021 146.3 111.021 146.337C111.021 150.584 122.383 153.602 136.354 153.602C150.362 153.602 161.687 150.584 161.687 146.337C161.687 146.3 161.687 146.3 161.687 146.263V75.6276C161.687 75.5903 161.687 75.2177 161.687 75.0315Z" fill="#FBCDE1"/>
<path d="M136.354 154.496C123.687 154.496 110.089 151.926 110.089 146.3V75.0317C110.089 73.0944 112.697 71.7905 118.285 70.8591C122.867 70.114 129.312 69.667 136.354 69.667C143.395 69.667 149.84 70.0768 154.422 70.8591C160.01 71.7905 162.618 73.0944 162.618 75.0317V146.226C162.618 146.226 162.618 146.263 162.618 146.3C162.618 151.926 148.983 154.496 136.354 154.496ZM136.354 71.5297C129.387 71.5297 123.091 71.9395 118.583 72.6846C112.212 73.7278 111.952 75.0317 111.952 75.0317V146.3C111.952 149.392 121.75 152.671 136.354 152.671C150.957 152.671 160.756 149.392 160.756 146.338V146.3V75.069C160.756 75.069 160.458 73.765 154.124 72.7219C149.616 71.9395 143.283 71.5297 136.354 71.5297Z" fill="#BE91D6"/>
<path d="M161.687 75.0687C161.687 77.8628 150.324 80.5824 136.354 80.5824C122.346 80.5824 111.021 77.9001 111.021 75.0687C111.021 72.2746 122.383 70.6354 136.354 70.6354C150.324 70.5981 161.687 72.2373 161.687 75.0687Z" fill="#FFF1F1"/>
<path d="M136.354 81.4768C125.438 81.4768 110.089 79.465 110.089 75.0317C110.089 70.1886 128.456 69.667 136.354 69.667C144.252 69.667 162.618 70.1886 162.618 75.0317C162.618 79.5023 147.269 81.4768 136.354 81.4768ZM136.354 71.5297C129.387 71.5297 123.091 71.9395 118.583 72.6846C112.212 73.7278 111.952 75.0317 111.952 75.0317C111.952 75.3297 113.069 76.6709 118.657 77.9376C123.501 79.018 129.797 79.614 136.391 79.614C142.985 79.614 149.281 79.018 154.124 77.9376C159.675 76.7082 160.83 75.3297 160.83 75.0317C160.83 75.0317 160.532 73.7278 154.199 72.6846C149.616 71.9395 143.283 71.5297 136.354 71.5297Z" fill="#BE91D6"/>
<path d="M136.354 154.496C123.687 154.496 110.089 151.926 110.089 146.3V75.0317C110.089 73.0944 112.697 71.7905 118.285 70.8591C122.867 70.114 129.312 69.667 136.354 69.667C143.395 69.667 149.84 70.0768 154.422 70.8591C160.01 71.7905 162.618 73.0944 162.618 75.0317V146.226C162.618 146.226 162.618 146.263 162.618 146.3C162.618 151.926 148.983 154.496 136.354 154.496ZM136.354 71.5297C129.387 71.5297 123.091 71.9395 118.583 72.6846C112.212 73.7278 111.952 75.0317 111.952 75.0317V146.3C111.952 149.392 121.75 152.671 136.354 152.671C150.957 152.671 160.756 149.392 160.756 146.338V146.3V75.069C160.756 75.069 160.458 73.765 154.124 72.7219C149.616 71.9395 143.283 71.5297 136.354 71.5297Z" fill="#3B021A"/>
<path d="M136.354 81.4768C125.438 81.4768 110.089 79.465 110.089 75.0317C110.089 70.1886 128.456 69.667 136.354 69.667C144.252 69.667 162.618 70.1886 162.618 75.0317C162.618 79.5023 147.269 81.4768 136.354 81.4768ZM136.354 71.5297C129.387 71.5297 123.091 71.9395 118.583 72.6846C112.212 73.7278 111.952 75.0317 111.952 75.0317C111.952 75.3297 113.069 76.6709 118.657 77.9376C123.501 79.018 129.797 79.614 136.391 79.614C142.985 79.614 149.281 79.018 154.124 77.9376C159.675 76.7082 160.83 75.3297 160.83 75.0317C160.83 75.0317 160.532 73.7278 154.199 72.6846C149.616 71.9395 143.283 71.5297 136.354 71.5297Z" fill="#3B021A"/>
<path d="M140.228 59.943L136.353 53.1626L132.442 59.9057C130.691 62.9234 132.889 66.6489 136.353 66.6489C139.818 66.6861 141.979 62.9234 140.228 59.943Z" fill="#FFB230"/>
<path d="M136.353 67.6176C134.379 67.6176 132.628 66.6117 131.659 64.898C130.69 63.1842 130.69 61.1725 131.659 59.4588L135.571 52.7156C135.72 52.4176 136.055 52.2686 136.39 52.2686C136.726 52.2686 137.024 52.4548 137.21 52.7156L141.122 59.4588C142.09 61.1725 142.09 63.1842 141.122 64.898C140.079 66.6117 138.328 67.6176 136.353 67.6176ZM136.353 55.0254L133.261 60.3901C132.628 61.5078 132.628 62.8489 133.261 63.9666C133.894 65.0842 135.049 65.7548 136.353 65.7548C137.657 65.7548 138.812 65.0842 139.445 63.9666C140.079 62.8489 140.079 61.5078 139.445 60.3901L136.353 55.0254Z" fill="#784B42"/>
<path d="M136.353 76.2236C135.832 76.2236 135.422 75.8138 135.422 75.2923V62.4021C135.422 61.8805 135.832 61.4707 136.353 61.4707C136.875 61.4707 137.285 61.8805 137.285 62.4021V75.2923C137.285 75.8138 136.875 76.2236 136.353 76.2236Z" fill="#AF6C52"/>
<g opacity="0.18">
<path d="M164.966 52.9019C164.146 55.9195 151.629 58.9744 136.354 58.9744C121.154 58.9744 108.711 55.9195 107.78 52.9391C107.742 52.9391 107.705 160.382 107.705 160.382C107.705 160.382 107.705 160.382 107.705 160.42C107.705 165.225 120.521 169.1 136.317 169.1C152.113 169.1 164.929 165.225 164.929 160.42C164.929 160.382 164.929 160.382 164.929 160.345C164.966 160.308 164.966 52.9019 164.966 52.9019Z" fill="#F2DADD"/>
</g>
<path d="M136.354 59.6825C126.146 59.6825 106.811 58.304 106.811 53.0138C106.811 47.7236 126.146 46.3452 136.354 46.3452C146.562 46.3452 165.897 47.7236 165.897 53.0138C165.897 58.2668 146.562 59.6825 136.354 59.6825ZM136.354 48.208C128.754 48.208 121.638 48.804 116.311 49.8844C110.052 51.1511 108.673 52.5668 108.673 53.0138C108.673 53.4609 110.052 54.9138 116.311 56.1433C121.675 57.2236 128.791 57.8197 136.354 57.8197C143.954 57.8197 151.069 57.2236 156.397 56.1433C162.656 54.8766 164.034 53.4609 164.034 53.0138C164.034 52.5668 162.656 51.1138 156.397 49.8844C151.069 48.804 143.916 48.208 136.354 48.208Z" fill="#784B42"/>
<path d="M136.354 158.147C122.718 158.147 108.301 155.092 106.922 149.43H106.811V148.535V52.9766C106.811 47.7236 126.146 46.3452 136.354 46.3452C146.562 46.3452 165.897 47.7236 165.897 52.9766V149.392H165.785C164.481 155.092 149.989 158.147 136.354 158.147ZM108.673 148.535C108.711 152.186 120.073 156.284 136.354 156.284C152.671 156.284 164.034 152.186 164.034 148.535V148.498L163.997 147.53H164.034V52.9766C164.034 52.5295 162.656 51.1138 156.397 49.8472C151.032 48.7668 143.916 48.208 136.354 48.208C128.754 48.208 121.638 48.804 116.311 49.8472C110.052 51.1138 108.673 52.5295 108.673 52.9766V148.535Z" fill="#784B42"/>
<path d="M136.354 170.032C122.011 170.032 106.811 166.642 106.811 160.42V148.536H108.673C108.673 152.224 120.036 156.285 136.354 156.285C152.671 156.285 164.034 152.187 164.034 148.536H165.897V160.42C165.897 166.642 150.66 170.032 136.354 170.032ZM108.673 152.075V160.383C108.673 164.071 120.036 168.132 136.354 168.132C152.671 168.132 164.034 164.034 164.034 160.383V152.075C159.563 156.061 147.679 158.147 136.354 158.147C125.028 158.147 113.144 156.024 108.673 152.075Z" fill="#784B42"/>
<path opacity="0.51" d="M111.952 80.098V147.79C111.952 148.163 112.175 148.498 112.585 148.684C116.981 150.845 122.569 151.404 125.252 151.553C126.109 151.59 126.854 151.106 126.854 150.472V81.4764C126.854 80.8803 126.22 80.396 125.401 80.396C119.775 80.247 114.559 78.5705 112.473 78.049C111.505 77.8254 111.952 79.3529 111.952 80.098Z" fill="#FFFCFC"/>
<path opacity="0.22" d="M159.526 80.7311V149.839C159.526 150.211 159.266 150.547 158.819 150.77C154.013 152.968 147.94 153.043 144.997 153.192C144.066 153.229 143.246 152.745 143.246 152.074V82.1468C143.246 81.5507 143.954 81.0664 144.811 81.0291C150.958 80.8801 155.093 80.2095 157.366 79.6507C158.409 79.4272 159.526 79.9487 159.526 80.7311Z" fill="#EF3986"/>
<path d="M91.6476 183.965C77.3045 183.965 62.1045 180.575 62.1045 174.353V162.469H63.9672C63.9672 166.157 75.33 170.218 91.6476 170.218C107.965 170.218 119.328 166.12 119.328 162.469H121.191V174.353C121.191 180.612 105.991 183.965 91.6476 183.965ZM63.9672 166.045V174.353C63.9672 178.041 75.33 182.102 91.6476 182.102C107.965 182.102 119.328 178.004 119.328 174.353V166.045C114.857 170.031 102.973 172.118 91.6476 172.118C80.3221 172.118 68.4378 169.994 63.9672 166.045Z" fill="#784B42"/>
<path opacity="0.56" d="M91.6479 170.963C107.45 170.963 120.26 167.427 120.26 163.065C120.26 158.703 107.45 155.167 91.6479 155.167C75.8461 155.167 63.0361 158.703 63.0361 163.065C63.0361 167.427 75.8461 170.963 91.6479 170.963Z" fill="#FFFFFC"/>
<path opacity="0.33" d="M91.6479 183.033C107.45 183.033 120.26 179.381 120.26 174.875C120.26 170.369 107.45 166.716 91.6479 166.716C75.8461 166.716 63.0361 170.369 63.0361 174.875C63.0361 179.381 75.8461 183.033 91.6479 183.033Z" fill="#FFFFFC"/>
<path d="M116.981 109.678C116.981 106.884 105.618 105.245 91.6478 105.245C77.6399 105.245 66.3145 106.884 66.3145 109.678C66.3145 109.79 66.3145 110.051 66.3145 110.051V160.233C66.3145 160.233 66.3145 160.233 66.3145 160.271C66.3145 164.518 77.6772 167.535 91.6478 167.535C105.656 167.535 116.981 164.518 116.981 160.271C116.981 160.233 116.981 160.233 116.981 160.196V110.275C116.981 110.275 116.981 109.902 116.981 109.678Z" fill="#F2E5E4"/>
<path d="M91.6475 168.467C78.9809 168.467 65.3828 165.896 65.3828 160.271V109.679C65.3828 107.741 67.9907 106.437 73.5789 105.506C78.1612 104.761 84.6063 104.314 91.6475 104.314C98.6887 104.314 105.134 104.724 109.716 105.506C115.304 106.437 117.912 107.741 117.912 109.679V160.196C117.912 160.196 117.912 160.234 117.912 160.271C117.912 165.896 104.314 168.467 91.6475 168.467ZM91.6475 106.214C84.6809 106.214 78.3848 106.624 73.8769 107.369C67.5063 108.412 67.2456 109.716 67.2456 109.716V160.271C67.2456 163.363 77.0436 166.641 91.6475 166.641C106.251 166.641 116.049 163.363 116.049 160.308V160.271V109.753C116.049 109.753 115.751 108.449 109.418 107.406C104.91 106.624 98.6142 106.214 91.6475 106.214Z" fill="#B7958A"/>
<path d="M116.981 109.716C116.981 112.51 105.618 115.23 91.6478 115.23C77.6772 115.23 66.3145 112.547 66.3145 109.716C66.3145 106.885 77.6772 105.283 91.6478 105.283C105.618 105.283 116.981 106.922 116.981 109.716Z" fill="white"/>
<path d="M91.6475 116.124C80.7318 116.124 65.3828 114.112 65.3828 109.679C65.3828 104.836 83.7495 104.314 91.6475 104.314C99.5456 104.314 117.912 104.836 117.912 109.679C117.912 114.149 102.563 116.124 91.6475 116.124ZM91.6475 106.214C84.6809 106.214 78.3848 106.624 73.8769 107.369C67.5063 108.412 67.2456 109.716 67.2456 109.716C67.2456 110.014 68.3632 111.355 73.9514 112.622C78.7946 113.702 85.0907 114.298 91.6848 114.298C98.2789 114.298 104.575 113.702 109.418 112.622C114.969 111.392 116.124 110.014 116.124 109.716C116.124 109.716 115.826 108.412 109.493 107.369C104.91 106.624 98.6142 106.214 91.6475 106.214Z" fill="#B7958A"/>
<path d="M91.6475 168.467C78.9809 168.467 65.3828 165.896 65.3828 160.271V109.679C65.3828 107.741 67.9907 106.437 73.5789 105.506C78.1612 104.761 84.6063 104.314 91.6475 104.314C98.6887 104.314 105.134 104.724 109.716 105.506C115.304 106.437 117.912 107.741 117.912 109.679V160.196C117.912 160.196 117.912 160.234 117.912 160.271C117.912 165.896 104.314 168.467 91.6475 168.467ZM91.6475 106.214C84.6809 106.214 78.3848 106.624 73.8769 107.369C67.5063 108.412 67.2456 109.716 67.2456 109.716V160.271C67.2456 163.363 77.0436 166.641 91.6475 166.641C106.251 166.641 116.049 163.363 116.049 160.308V160.271V109.753C116.049 109.753 115.751 108.449 109.418 107.406C104.91 106.624 98.6142 106.214 91.6475 106.214Z" fill="#B7958A"/>
<path d="M91.6475 116.124C80.7318 116.124 65.3828 114.112 65.3828 109.679C65.3828 104.836 83.7495 104.314 91.6475 104.314C99.5456 104.314 117.912 104.836 117.912 109.679C117.912 114.149 102.563 116.124 91.6475 116.124ZM91.6475 106.214C84.6809 106.214 78.3848 106.624 73.8769 107.369C67.5063 108.412 67.2456 109.716 67.2456 109.716C67.2456 110.014 68.3632 111.355 73.9514 112.622C78.7946 113.702 85.0907 114.298 91.6848 114.298C98.2789 114.298 104.575 113.702 109.418 112.622C114.969 111.392 116.124 110.014 116.124 109.716C116.124 109.716 115.826 108.412 109.493 107.369C104.91 106.624 98.6142 106.214 91.6475 106.214Z" fill="#B7958A"/>
<g opacity="0.19">
<path d="M120.26 105.282C119.44 108.3 106.923 111.355 91.648 111.355C76.448 111.355 64.0049 108.3 63.0735 105.319C63.0363 105.319 62.999 174.353 62.999 174.353C62.999 174.353 62.999 174.353 62.999 174.39C62.999 179.196 75.8147 183.07 91.6108 183.07C107.407 183.07 120.223 179.196 120.223 174.39C120.223 174.353 120.223 174.353 120.223 174.316C120.26 174.278 120.297 105.245 120.26 105.282Z" fill="#F2DADD"/>
</g>
<path d="M91.6476 112.063C81.4398 112.063 62.1045 110.684 62.1045 105.394C62.1045 100.104 81.4398 98.7256 91.6476 98.7256C101.855 98.7256 121.191 100.104 121.191 105.394C121.191 110.647 101.855 112.063 91.6476 112.063ZM91.6476 100.588C84.0476 100.588 76.9319 101.184 71.6045 102.265C65.3457 103.531 63.9672 104.947 63.9672 105.394C63.9672 105.841 65.3457 107.294 71.6045 108.524C76.9692 109.604 84.0849 110.2 91.6476 110.2C99.2476 110.2 106.363 109.604 111.691 108.524C117.95 107.257 119.328 105.841 119.328 105.394C119.328 104.947 117.95 103.494 111.691 102.265C106.363 101.184 99.2476 100.588 91.6476 100.588Z" fill="#784B42"/>
<path d="M91.6476 172.118C78.0123 172.118 63.5947 169.063 62.2163 163.4H62.1045V162.506V105.357C62.1045 100.104 81.4398 98.7256 91.6476 98.7256C101.855 98.7256 121.191 100.104 121.191 105.357V163.326H121.079C119.775 169.026 105.32 172.118 91.6476 172.118ZM63.9672 162.506C64.0045 166.157 75.3672 170.255 91.6476 170.255C107.965 170.255 119.328 166.157 119.328 162.506V162.469L119.291 161.5H119.328V105.357C119.328 104.91 117.95 103.494 111.691 102.228C106.326 101.147 99.2104 100.588 91.6476 100.588C84.0476 100.588 76.9319 101.184 71.6045 102.228C65.3457 103.494 63.9672 104.91 63.9672 105.357V162.506Z" fill="#784B42"/>
<path d="M91.9831 109.38C91.4616 109.38 91.0518 108.971 91.0518 108.449V94.0315C91.0518 93.5099 91.4616 93.1001 91.9831 93.1001C92.5047 93.1001 92.9145 93.5099 92.9145 94.0315V108.449C92.9145 108.971 92.5047 109.38 91.9831 109.38Z" fill="#AF6C52"/>
<path d="M91.6476 183.965C77.3045 183.965 62.1045 180.575 62.1045 174.353V162.469H63.9672C63.9672 166.157 75.33 170.218 91.6476 170.218C107.965 170.218 119.328 166.12 119.328 162.469H121.191V174.353C121.191 180.612 105.991 183.965 91.6476 183.965ZM63.9672 166.045V174.353C63.9672 178.041 75.33 182.102 91.6476 182.102C107.965 182.102 119.328 178.004 119.328 174.353V166.045C114.857 170.031 102.973 172.118 91.6476 172.118C80.3221 172.118 68.4378 169.994 63.9672 166.045Z" fill="#784B42"/>
<path opacity="0.56" d="M67.7676 115.267V161.351C67.7676 161.761 67.9911 162.133 68.3637 162.357C72.3872 164.816 77.5284 165.449 79.9872 165.598C80.7695 165.635 81.4401 165.076 81.4401 164.369V116.831C81.4401 116.161 80.8441 115.639 80.099 115.602C74.9205 115.453 71.4558 114.671 69.5558 114.075C68.699 113.814 67.7676 114.41 67.7676 115.267Z" fill="#FFFCFC"/>
<path opacity="0.32" d="M115.193 116.31V161.649C115.193 162.059 114.224 162.655 113.702 162.879C108.077 165.338 101.632 166.343 98.2043 166.492C97.0866 166.53 96.1553 165.971 96.1553 165.263V117.912C96.1553 117.242 96.9749 116.72 97.9808 116.683C105.171 116.534 110.014 115.751 112.659 115.155C113.889 114.894 115.193 115.491 115.193 116.31Z" fill="#E1C1B8"/>
</g>
<defs>
<clipPath id="clip0_2251_7150">
<rect width="228" height="228" fill="white"/>
</clipPath>
</defs>
</svg>
