<svg width="19" height="19" viewBox="0 0 19 19" fill="none" xmlns="http://www.w3.org/2000/svg">
<path d="M11.5504 8.70833H14.25V7.125H12.92C13.2525 6.6025 13.4583 6.08 13.4583 5.54167C13.4583 3.45958 11.4792 2.375 9.5 2.375C7.63958 2.375 5.96125 4.00583 5.77125 4.18792L6.89542 5.31208C7.27542 4.93208 8.47875 3.95833 9.5 3.95833C10.3233 3.95833 11.875 4.29083 11.875 5.54167C11.875 5.9375 11.4792 6.52333 10.8933 7.125H4.75V8.70833H9.20708C8.87458 8.99333 7.71875 10.0304 7.44958 10.2917H4.75V11.875H6.08C5.7475 12.3975 5.54167 12.92 5.54167 13.4583C5.54167 15.5404 7.52083 16.625 9.5 16.625C11.3604 16.625 13.0387 14.9942 13.2287 14.8121L12.1046 13.6879C11.7325 14.0679 10.5213 15.0417 9.5 15.0417C8.67667 15.0417 7.125 14.7092 7.125 13.4583C7.125 13.0625 7.52083 12.4767 8.10667 11.875H14.25V10.2917H9.80083L11.5504 8.70833Z" fill="#060606"/>
</svg>
