<svg width="24" height="24" viewBox="0 0 24 24" fill="none" xmlns="http://www.w3.org/2000/svg">
<mask id="mask0_775_314" style="mask-type:luminance" maskUnits="userSpaceOnUse" x="4" y="6" width="16" height="12">
<path d="M4 6H20V18H4V6Z" fill="white"/>
</mask>
<g mask="url(#mask0_775_314)">
<path fill-rule="evenodd" clip-rule="evenodd" d="M4 6V18H20V6H4Z" fill="#2E42A5"/>
<mask id="mask1_775_314" style="mask-type:luminance" maskUnits="userSpaceOnUse" x="4" y="6" width="16" height="12">
<path fill-rule="evenodd" clip-rule="evenodd" d="M4 6V18H20V6H4Z" fill="white"/>
</mask>
<g mask="url(#mask1_775_314)">
<mask id="mask2_775_314" style="mask-type:luminance" maskUnits="userSpaceOnUse" x="4" y="6" width="16" height="12">
<path d="M4 6H20V18H4V6Z" fill="white"/>
</mask>
<g mask="url(#mask2_775_314)">
<path d="M2.21875 17.1425L5.73975 18.632L20.0798 7.61901L21.9373 5.40601L18.1722 4.90851L12.3232 9.65401L7.61525 12.852L2.21875 17.1425Z" fill="white"/>
<path d="M2.7002 18.186L4.4947 19.05L21.2702 5.2005H18.7517L2.7007 18.1855L2.7002 18.186Z" fill="#F50100"/>
<path d="M21.782 17.1425L18.261 18.632L3.92098 7.61901L2.06348 5.40601L5.82848 4.90851L11.6775 9.65401L16.3855 12.852L21.782 17.1425Z" fill="white"/>
<path d="M21.6618 17.8915L19.8678 18.7555L12.7248 12.8255L10.6068 12.1635L1.88428 5.41345H4.40328L13.1203 12.0035L15.4358 12.7975L21.6618 17.8915Z" fill="#F50100"/>
<path fill-rule="evenodd" clip-rule="evenodd" d="M13.8896 5H10.1116V10H3.01465V14H10.1116V19H13.8896V14H21.0146V10H13.8896V5Z" fill="#F50100"/>
<mask id="mask3_775_314" style="mask-type:luminance" maskUnits="userSpaceOnUse" x="3" y="5" width="19" height="14">
<path fill-rule="evenodd" clip-rule="evenodd" d="M13.8887 5H10.1107V10H3.01367V14H10.1107V19H13.8887V14H21.0137V10H13.8887V5Z" fill="white"/>
</mask>
<g mask="url(#mask3_775_314)">
<path d="M10.1112 5V4H9.11116V5H10.1112ZM13.8892 5H14.8892V4H13.8892V5ZM10.1112 10V11H11.1112V10H10.1112ZM3.01416 10V9H2.01416V10H3.01416ZM3.01416 14H2.01416V15H3.01416V14ZM10.1112 14H11.1112V13H10.1112V14ZM10.1112 19H9.11116V20H10.1112V19ZM13.8892 19V20H14.8892V19H13.8892ZM13.8892 14V13H12.8892V14H13.8892ZM21.0142 14V15H22.0142V14H21.0142ZM21.0142 10H22.0142V9H21.0142V10ZM13.8892 10H12.8892V11H13.8892V10ZM10.1112 6H13.8892V4H10.1112V6ZM11.1112 10V5H9.11116V10H11.1112ZM3.01416 11H10.1112V9H3.01416V11ZM4.01416 14V10H2.01416V14H4.01416ZM10.1112 13H3.01416V15H10.1112V13ZM11.1112 19V14H9.11116V19H11.1112ZM13.8892 18H10.1112V20H13.8892V18ZM12.8892 14V19H14.8892V14H12.8892ZM21.0142 13H13.8892V15H21.0142V13ZM20.0142 10V14H22.0142V10H20.0142ZM13.8892 11H21.0142V9H13.8892V11ZM12.8892 5V10H14.8892V5H12.8892Z" fill="white"/>
</g>
</g>
</g>
</g>
</svg>
