<svg width="153" height="41" viewBox="0 0 153 41" fill="none" xmlns="http://www.w3.org/2000/svg">
<g id="Logo">
<path id="Vector" d="M11.087 40L19.8725 17.5H17.6943L10.4401 36.107L3.17436 17.5H1L9.75868 40H11.087ZM33.5426 17.5L24.7839 40H26.9583L28.7537 35.4037H39.6944L41.4821 40H43.6564L34.871 17.5H33.5426ZM29.6073 33.2186L34.224 21.3847L38.8101 33.2186H29.6073ZM66.4145 37.8107H50.5661V17.5H48.5679V40H66.4145V37.8107ZM81.4397 40L86.7301 26.5L91.9899 40H93.3183L102.104 17.5H99.9294L92.6637 36.107L86.7301 20.9074L80.7928 36.107L73.5309 17.5H71.3527L80.1114 40H81.4397ZM115.774 17.5L107.015 40H109.19L110.985 35.4037H121.926L123.713 40H125.888L117.102 17.5H115.774ZM111.839 33.2186L116.455 21.3847L121.041 33.2186H111.839ZM151 40L142.207 28.7479L150.969 17.5H148.351L140.886 27.0735L133.414 17.5H130.799L139.558 28.7479L130.799 40H133.414L140.886 30.4516L148.351 40H151Z" stroke="#FF007A"/>
<path id="Union" fill-rule="evenodd" clip-rule="evenodd" d="M28.5074 0L24.8523 7.5H25.7568L26.5069 5.97024H31.0665L31.8167 7.5H32.7211L29.0554 0H28.5074ZM26.8634 5.24023L28.7894 1.29727L30.6994 5.24023H26.8634ZM22.3344 5.8887C21.0625 7.07156 18.9995 7.07156 17.7326 5.8887C17.1167 5.31124 16.7862 4.56147 16.7862 3.74651C16.7862 2.94086 17.1167 2.17712 17.7326 1.60897C18.9995 0.430767 21.0625 0.430767 22.3344 1.60897L22.8852 1.09671C21.3079 -0.36557 18.7441 -0.36557 17.1768 1.09671C16.4156 1.80456 16 2.74527 16 3.74651C16 4.75241 16.4156 5.69776 17.1768 6.40562C17.9629 7.13676 18.9995 7.5 20.026 7.5C21.0625 7.5 22.1041 7.13676 22.8852 6.40562L22.3344 5.8887ZM41.5739 0V7.5H41.0075L35.4619 1.36237V7.5H34.6887V0H35.2452L40.8056 6.15158V0H41.5739ZM51.4098 3.75232C51.4098 1.6832 49.6319 0 47.4402 0H44.5246V7.5H47.4402C49.6319 7.5 51.4098 5.8168 51.4098 3.75232ZM47.4402 6.76999H45.2978V0.739305H47.4402C49.1985 0.739305 50.6415 2.08772 50.6415 3.75232C50.6415 5.42157 49.1985 6.76999 47.4402 6.76999ZM54.1501 6.76999H60.2621V7.5H53.3769V0H54.1501V6.76999ZM69.1149 0.739305V0H62.2296V7.5H69.1149V6.76999H63.0028V4.1243H66.9478V3.385H63.0028V0.739305H69.1149ZM75.7903 0.739305H73.2588C72.4757 0.739305 71.8551 1.32982 71.8551 2.05983C71.8551 2.79913 72.4757 3.385 73.2588 3.385H75.7903C76.992 3.385 77.9671 4.30564 77.9671 5.44482C77.9671 6.57935 76.992 7.5 75.7903 7.5H73.2588C72.0571 7.5 71.0819 6.57935 71.0819 5.44482H71.8551C71.8551 6.18413 72.4757 6.76999 73.2588 6.76999H75.7903C76.5635 6.76999 77.1988 6.18413 77.1988 5.44482C77.1988 4.71482 76.5635 4.1243 75.7903 4.1243H73.2588C72.0571 4.1243 71.0819 3.19436 71.0819 2.05983C71.0819 0.934593 72.0571 0 73.2588 0H75.7903C76.992 0 77.9671 0.934593 77.9671 2.05983H77.1988C77.1988 1.32982 76.5635 0.739305 75.7903 0.739305ZM88.9967 0.739305H91.5282C92.3014 0.739305 92.9368 1.32982 92.9368 2.05983H93.7051C93.7051 0.934593 92.7299 0 91.5282 0H88.9967C87.795 0 86.8198 0.934593 86.8198 2.05983C86.8198 3.19436 87.795 4.1243 88.9967 4.1243H91.5282C92.3014 4.1243 92.9368 4.71482 92.9368 5.44482C92.9368 6.18413 92.3014 6.76999 91.5282 6.76999H88.9967C88.2136 6.76999 87.5931 6.18413 87.5931 5.44482H86.8198C86.8198 6.57935 87.795 7.5 88.9967 7.5H91.5282C92.7299 7.5 93.7051 6.57935 93.7051 5.44482C93.7051 4.30564 92.7299 3.385 91.5282 3.385H88.9967C88.2136 3.385 87.5931 2.79913 87.5931 2.05983C87.5931 1.32982 88.2136 0.739305 88.9967 0.739305ZM99.4937 7.5H98.7254V0.739305H95.6718V0H102.557V0.739305H99.4937V7.5ZM111.41 4.2545V0H110.642V4.2545C110.642 5.64476 109.44 6.76999 107.962 6.76999C106.49 6.76999 105.298 5.64476 105.298 4.2545V0H104.525V4.2545C104.525 6.04464 106.066 7.5 107.962 7.5C109.868 7.5 111.41 6.04464 111.41 4.2545ZM117.276 0C119.468 0 121.246 1.6832 121.246 3.75232C121.246 5.8168 119.468 7.5 117.276 7.5H114.36V0H117.276ZM115.134 6.76999H117.276C119.034 6.76999 120.477 5.42157 120.477 3.75232C120.477 2.08772 119.034 0.739305 117.276 0.739305H115.134V6.76999ZM125.18 7.5V0H124.197V7.5H125.18ZM132.061 0C134.236 0 136 1.6832 136 3.75232C136 5.8168 134.236 7.5 132.061 7.5C129.886 7.5 128.131 5.8168 128.131 3.75232C128.131 1.6832 129.9 0 132.061 0ZM128.899 3.75232C128.899 5.42157 130.316 6.76999 132.061 6.76999C133.815 6.76999 135.238 5.42157 135.238 3.75232C135.238 2.08772 133.815 0.739305 132.061 0.739305C130.316 0.739305 128.899 2.08772 128.899 3.75232Z" fill="#060606"/>
</g>
</svg>
