<svg width="24" height="24" viewBox="0 0 24 24" fill="none" xmlns="http://www.w3.org/2000/svg">
<path d="M12.1672 10.5498L12 10.7383L11.8321 10.5498C11.5201 10.1976 11.0993 10.0001 10.6609 10.0001C10.2225 10.0001 9.80168 10.1976 9.48969 10.5498C9.33484 10.7201 9.21166 10.9244 9.12751 11.1505C9.04337 11.3766 9 11.6197 9 11.8654C9 12.1111 9.04337 12.3543 9.12751 12.5803C9.21166 12.8064 9.33484 13.0107 9.48969 13.181L12 16L14.5103 13.181C14.6652 13.0107 14.7883 12.8064 14.8725 12.5803C14.9566 12.3543 15 12.1111 15 11.8654C15 11.6197 14.9566 11.3766 14.8725 11.1505C14.7883 10.9244 14.6652 10.7201 14.5103 10.5498C14.1982 10.1975 13.7773 10 13.3387 10C12.9002 10 12.4793 10.1975 12.1672 10.5498Z" fill="#F79CC3"/>
<path d="M20.7365 11.3636L12.6363 3.26363C12.5528 3.17998 12.4536 3.11362 12.3444 3.06834C12.2352 3.02306 12.1182 2.99976 12 2.99976C11.8818 2.99976 11.7648 3.02306 11.6556 3.06834C11.5464 3.11362 11.4472 3.17998 11.3637 3.26363L3.26351 11.3636C3.13768 11.4894 3.052 11.6498 3.01728 11.8243C2.98257 11.9989 3.0004 12.1798 3.0685 12.3442C3.1366 12.5087 3.25193 12.6492 3.3999 12.7481C3.54788 12.847 3.72185 12.8998 3.89983 12.8998H4.79985V19.1998C4.79985 20.1925 5.60716 20.9998 6.59988 20.9998H17.4001C18.3928 20.9998 19.2002 20.1925 19.2002 19.1998V12.8998H20.1002C20.2782 12.8998 20.4521 12.847 20.6001 12.7481C20.7481 12.6492 20.8634 12.5087 20.9315 12.3442C20.9996 12.1798 21.0174 11.9989 20.9827 11.8243C20.948 11.6498 20.8623 11.4894 20.7365 11.3636ZM17.401 19.1998H6.59988V10.5734L12 5.17342L17.4001 10.5734V14.6998L17.401 19.1998Z" fill="#F79CC3"/>
</svg>
