<svg width="80" height="21" viewBox="0 0 80 21" fill="none" xmlns="http://www.w3.org/2000/svg">
<path d="M6.17801 20L10.6879 8.75H9.56975L5.84591 18.0535L2.11617 8.75H1L5.49612 20H6.17801ZM17.7052 8.75L13.2091 20H14.3253L15.2469 17.7019H20.8631L21.7808 20H22.897L18.3871 8.75H17.7052ZM15.6851 16.6093L18.055 10.6923L20.4092 16.6093H15.6851ZM34.5794 18.9053H26.444V8.75H25.4182V20H34.5794V18.9053ZM42.2924 20L45.0081 13.25L47.7082 20H48.3901L52.8999 8.75H51.7838L48.054 18.0535L45.0081 10.4537L41.9603 18.0535L38.2325 8.75H37.1144L41.6105 20H42.2924ZM59.9173 8.75L55.4211 20H56.5373L57.4589 17.7019H63.0752L63.9929 20H65.109L60.5992 8.75H59.9173ZM57.8972 16.6093L60.267 10.6923L62.6212 16.6093H57.8972ZM78 20L73.4862 14.374L77.9843 8.75H76.6402L72.8082 13.5367L68.9724 8.75H67.6302L72.1264 14.374L67.6302 20H68.9724L72.8082 15.2258L76.6402 20H78Z" stroke="#FF007A"/>
<path fill-rule="evenodd" clip-rule="evenodd" d="M15.1205 0L13.2442 3.75H13.7085L14.0936 2.98512H16.4341L16.8192 3.75H17.2835L15.4018 0H15.1205ZM14.2766 2.62012L15.2652 0.648636L16.2457 2.62012H14.2766ZM11.9517 2.94435C11.2988 3.53578 10.2397 3.53578 9.5894 2.94435C9.27323 2.65562 9.10358 2.28074 9.10358 1.87325C9.10358 1.47043 9.27323 1.08856 9.5894 0.804487C10.2397 0.215383 11.2988 0.215383 11.9517 0.804487L12.2344 0.548354C11.4247 -0.182785 10.1086 -0.182785 9.30408 0.548354C8.91336 0.902282 8.70001 1.37263 8.70001 1.87325C8.70001 2.3762 8.91336 2.84888 9.30408 3.20281C9.70764 3.56838 10.2397 3.75 10.7667 3.75C11.2988 3.75 11.8334 3.56838 12.2344 3.20281L11.9517 2.94435ZM21.8279 0V3.75H21.5372L18.6905 0.681184V3.75H18.2935V0H18.5792L21.4335 3.07579V0H21.8279ZM26.8771 1.87616C26.8771 0.841599 25.9644 0 24.8393 0H23.3426V3.75H24.8393C25.9644 3.75 26.8771 2.9084 26.8771 1.87616ZM24.8393 3.385H23.7396V0.369652H24.8393C25.7419 0.369652 26.4827 1.04386 26.4827 1.87616C26.4827 2.71079 25.7419 3.385 24.8393 3.385ZM28.2837 3.385H31.4212V3.75H27.8868V0H28.2837V3.385ZM35.9656 0.369652V0H32.4312V3.75H35.9656V3.385H32.8281V2.06215H34.8532V1.6925H32.8281V0.369652H35.9656ZM39.3923 0.369652H38.0929C37.6909 0.369652 37.3723 0.66491 37.3723 1.02991C37.3723 1.39957 37.6909 1.6925 38.0929 1.6925H39.3923C40.0092 1.6925 40.5098 2.15282 40.5098 2.72241C40.5098 3.28968 40.0092 3.75 39.3923 3.75H38.0929C37.476 3.75 36.9754 3.28968 36.9754 2.72241H37.3723C37.3723 3.09206 37.6909 3.385 38.0929 3.385H39.3923C39.7893 3.385 40.1154 3.09206 40.1154 2.72241C40.1154 2.35741 39.7893 2.06215 39.3923 2.06215H38.0929C37.476 2.06215 36.9754 1.59718 36.9754 1.02991C36.9754 0.467297 37.476 0 38.0929 0H39.3923C40.0092 0 40.5098 0.467297 40.5098 1.02991H40.1154C40.1154 0.66491 39.7893 0.369652 39.3923 0.369652ZM46.1717 0.369652H47.4712C47.8681 0.369652 48.1942 0.66491 48.1942 1.02991H48.5886C48.5886 0.467297 48.088 0 47.4712 0H46.1717C45.5548 0 45.0542 0.467297 45.0542 1.02991C45.0542 1.59718 45.5548 2.06215 46.1717 2.06215H47.4712C47.8681 2.06215 48.1942 2.35741 48.1942 2.72241C48.1942 3.09206 47.8681 3.385 47.4712 3.385H46.1717C45.7697 3.385 45.4511 3.09206 45.4511 2.72241H45.0542C45.0542 3.28968 45.5548 3.75 46.1717 3.75H47.4712C48.088 3.75 48.5886 3.28968 48.5886 2.72241C48.5886 2.15282 48.088 1.6925 47.4712 1.6925H46.1717C45.7697 1.6925 45.4511 1.39957 45.4511 1.02991C45.4511 0.66491 45.7697 0.369652 46.1717 0.369652ZM51.5601 3.75H51.1657V0.369652H49.5982V0H53.1326V0.369652H51.5601V3.75ZM57.6771 2.12725V0H57.2827V2.12725C57.2827 2.82238 56.6658 3.385 55.9073 3.385C55.1514 3.385 54.5396 2.82238 54.5396 2.12725V0H54.1426V2.12725C54.1426 3.02232 54.934 3.75 55.9073 3.75C56.8857 3.75 57.6771 3.02232 57.6771 2.12725ZM60.6884 0C61.8135 0 62.7262 0.841599 62.7262 1.87616C62.7262 2.9084 61.8135 3.75 60.6884 3.75H59.1917V0H60.6884ZM59.5887 3.385H60.6884C61.591 3.385 62.3318 2.71079 62.3318 1.87616C62.3318 1.04386 61.591 0.369652 60.6884 0.369652H59.5887V3.385ZM64.7459 3.75V0H64.241V3.75H64.7459ZM68.2779 0C69.3943 0 70.3 0.841599 70.3 1.87616C70.3 2.9084 69.3943 3.75 68.2779 3.75C67.1614 3.75 66.2607 2.9084 66.2607 1.87616C66.2607 0.841599 67.1689 0 68.2779 0ZM66.6546 1.87616C66.6546 2.71079 67.3822 3.385 68.2779 3.385C69.1786 3.385 69.9086 2.71079 69.9086 1.87616C69.9086 1.04386 69.1786 0.369652 68.2779 0.369652C67.3822 0.369652 66.6546 1.04386 66.6546 1.87616Z" fill="#060606"/>
</svg>
